{
  "title": "Martyrs.2008.DVDRIP.XviD-ZEKTORM",
  "uid": 4860022,
  "size": 739265548,
  "categoryP": "video",
  "categoryS": "movies",
  "magnet": "?xt=urn:btih:4fd8f7e75c47cf39093a55ab4455081fa6712c06&amp;dn=Martyrs.2008.DVDRIP.XviD-ZEKTORM&amp;tr=udp%3A%2F%2Ftracker.openbittorrent.com%3A80&amp;tr=udp%3A%2F%2Fopen.demonii.com%3A1337&amp;tr=udp%3A%2F%2Ftracker.coppersurfer.tk%3A6969&amp;tr=udp%3A%2F%2Fexodus.desync.com%3A6969",
  "seeders": 85,
  "leechers": 9,
  "uploader": "blowley",
  "files": 4,
  "time": 1240188261,
  "description": "Title                            : Martyrs\nYear                             : 2008\nGenre                            : Drama | Horror\niMDB URL                         : http://www.imdb.com/title/tt1029234/\n\nComplete name                    : Martyrs.2008.DVDRIP.XviD-ZEKTORM.avi\nFormat                           : AVI\nFile size                        : 701 MiB\nDuration                         : 1h 36mn\nOverall bit rate                 : 1019 Kbps\nSubtitles                        : English, Spanish (Format: VobSub)\nSource                           : DVD NTSC\n\nVideo\nFormat                           : MPEG-4 Visual\nFormat profile                   : Streaming Video@L1\nCodec ID                         : DX50\nCodec ID/Hint                    : DivX 5\nDuration                         : 1h 36mn\nBit rate                         : 884 Kbps\nWidth                            : 720 pixels\nHeight                           : 384 pixels\nDisplay aspect ratio             : 1.875\nFrame rate                       : 23.976 fps\nResolution                       : 24 bits\nColorimetry                      : 4:2:0\nScan type                        : Progressive\nBits/(Pixel*Frame)               : 0.133\nStream size                      : 608 MiB (87%)\nWriting library                  : XviD\n\nAudio\nFormat                           : MPEG Audio\nFormat version                   : Version 1\nFormat profile                   : Layer 3\nCodec ID                         : 55\nCodec ID/Hint                    : MP3\nDuration                         : 1h 36mn\nBit rate mode                    : Constant\nBit rate                         : 128 Kbps\nMinimum bit rate                 : 128 Kbps\nChannel(s)                       : 2 channels\nSampling rate                    : 48.0 KHz\nResolution                       : 16 bits\nStream size                      : 88.1 MiB (13%)\nWriting library                  : LAME3.98r\nEncoding settings                : CBR\n",
  "parsed": {
    "xt": "urn:btih:4fd8f7e75c47cf39093a55ab4455081fa6712c06",
    "dn": "Martyrs.2008.DVDRIP.XviD-ZEKTORM",
    "tr": [
      "udp://exodus.desync.com:6969",
      "udp://open.demonii.com:1337",
      "udp://tracker.coppersurfer.tk:6969",
      "udp://tracker.openbittorrent.com:80"
    ],
    "infoHash": "4fd8f7e75c47cf39093a55ab4455081fa6712c06",
    "infoHashBuffer": {
      "type": "Buffer",
      "data": [
        79,
        216,
        247,
        231,
        92,
        71,
        207,
        57,
        9,
        58,
        85,
        171,
        68,
        85,
        8,
        31,
        166,
        113,
        44,
        6
      ]
    },
    "name": "Martyrs.2008.DVDRIP.XviD-ZEKTORM",
    "announce": [
      "udp://exodus.desync.com:6969",
      "udp://open.demonii.com:1337",
      "udp://tracker.coppersurfer.tk:6969",
      "udp://tracker.openbittorrent.com:80"
    ],
    "urlList": []
  },
  "previous": 94,
  "peers": 112,
  "last_updated": "2016-12-25T00:51:24.684Z"
}